<?xml version="1.0" standalone="no"?><!DOCTYPE svg PUBLIC "-//W3C//DTD SVG 1.1//EN" "http://www.w3.org/Graphics/SVG/1.1/DTD/svg11.dtd"><svg t="1572001885657" class="icon" viewBox="0 0 1024 1024" version="1.1" xmlns="http://www.w3.org/2000/svg" p-id="2442" width="32" height="32" xmlns:xlink="http://www.w3.org/1999/xlink"><defs><style type="text/css"></style></defs><path d="M519.703 736.172c-87.139 0-158.472-64.737-170.317-148.617h-43.263c12.114 107.775 102.492 191.861 213.498 191.861s201.393-84.086 213.507-191.861h-43.11c-11.835 83.88-83.178 148.617-170.317 148.617zM512 62c-248.526 0-450 201.465-450 450 0 248.517 201.474 450 450 450 248.526 0 450-201.483 450-450 0-248.535-201.474-450-450-450zM511.964 916.992c-223.677 0-405.008-181.323-405.008-404.992 0-223.677 181.323-405.008 405.008-405.008 223.668 0 405 181.323 405 405.008 0 223.668-181.332 404.992-405 404.992zM638.189 463.598c27.306 0 49.436-22.14 49.436-49.436 0-27.306-22.131-49.436-49.436-49.436-27.306 0-49.447 22.131-49.447 49.436 0 27.297 22.131 49.437 49.447 49.437zM380.807 463.598c27.306 0 49.436-22.14 49.436-49.436 0-27.306-22.14-49.436-49.436-49.436-27.315 0-49.447 22.131-49.447 49.436 0 27.297 22.131 49.437 49.447 49.437z" p-id="2443" fill="#A3A3A3"></path></svg>