<?xml version="1.0" standalone="no"?><!DOCTYPE svg PUBLIC "-//W3C//DTD SVG 1.1//EN" "http://www.w3.org/Graphics/SVG/1.1/DTD/svg11.dtd"><svg t="1572002117626" class="icon" viewBox="0 0 1199 1024" version="1.1" xmlns="http://www.w3.org/2000/svg" p-id="4625" xmlns:xlink="http://www.w3.org/1999/xlink" width="37.46875" height="32"><defs><style type="text/css"></style></defs><path d="M1135.593632 311.433606v-82.745004a148.221485 148.221485 0 0 0-131.912325-150.55993h-379.787575l-15.649598-29.560353a89.940221 89.940221 0 0 0-80.166717-48.567719H122.626899A124.477266 124.477266 0 0 0 0.008397 125.91691v771.627139a124.477266 124.477266 0 0 0 122.618502 125.91631h953.965948a124.477266 124.477266 0 0 0 122.618502-125.91631v-473.685166a153.318097 153.318097 0 0 0-63.617717-112.425277z m-131.912325-157.575268c26.202584 0 56.122698 39.873498 56.122698 74.890225v52.704969h-328.461688l-67.155365-127.295393z m119.920295 743.865591a48.7476 48.7476 0 0 1-46.948795 50.306564H122.626899a48.7476 48.7476 0 0 1-46.948796-50.306564V126.336631a48.80756 48.80756 0 0 1 46.948796-50.366524h405.450518a14.870117 14.870117 0 0 1 13.251192 8.15458l133.83105 252.612101a37.894813 37.894813 0 0 0 33.457762 20.14661h347.768856a86.342613 86.342613 0 0 1 67.455166 67.515126v473.685166z" fill="#A4A4A4" p-id="4626"></path></svg>