<?xml version="1.0" standalone="no"?><!DOCTYPE svg PUBLIC "-//W3C//DTD SVG 1.1//EN" "http://www.w3.org/Graphics/SVG/1.1/DTD/svg11.dtd"><svg t="1571833258328" class="icon" viewBox="0 0 1024 1024" version="1.1" xmlns="http://www.w3.org/2000/svg" p-id="28820" data-spm-anchor-id="a313x.7781069.0.i31" xmlns:xlink="http://www.w3.org/1999/xlink" width="48" height="48"><defs><style type="text/css"></style></defs><path d="M391.74257232 272.81075222c-177.0099847 0-320.50696343 131.44223835-320.50696343 293.58056699 0 74.97965629 30.86179199 143.28985221 81.4005665 195.15423312 4.92960214 5.05387781 7.08371342 12.01331556 5.50955449 18.80705161L135.85895939 875.71347319c-4.01824639 17.2743187 14.45740302 31.31746987 30.77894236 23.40525156l109.404018-52.94143717c4.88817611-2.36123781 10.48058144-2.73406483 15.70015976-1.15990588 31.48317036 9.52780208 65.03760236 14.91308089 100.00049281 14.91308088 177.0099847 0 320.50696343-131.44223835 320.50696343-293.58056697S568.75255823 272.81075222 391.74257232 272.81075222zM232.6697095 511.08864546c28.16915319 0 50.95302637 20.91973806 50.95302637 46.68622863 0 25.76648935-22.82529921 46.68622863-50.95302637 46.68622864s-50.95302637-20.91973806-50.95302637-46.68622864C181.71668313 531.96695871 204.54198235 511.08864546 232.6697095 511.08864546zM383.49895301 604.46110151c-28.16915319 0-50.95302637-20.91973806-50.95302638-46.68622862 0-25.76648935 22.82529921-46.68622863 50.95302638-46.68622864s50.95302637 20.91973806 50.95302637 46.68622864C434.45197938 583.54136345 411.62668017 604.46110151 383.49895301 604.46110151zM531.05560295 604.46110151c-28.16915319 0-50.95302637-20.91973806-50.95302636-46.68622862 0-25.76648935 22.82529921-46.68622863 50.95302636-46.68622864s50.95302637 20.91973806 50.95302637 46.68622864C582.00862932 583.54136345 559.18333133 604.46110151 531.05560295 604.46110151z" fill="#ffffff" p-id="28821" data-spm-anchor-id="a313x.7781069.0.i32" class="selected"></path><path d="M952.76439111 470.78190102c0-199.08962987-183.30661925-360.48230567-409.44692124-360.48230566-150.4978413 0-281.65010227 71.70706395-352.8186387 178.21131662 57.66391277-35.12859094 126.84403841-55.67550198 201.28516718-55.67550199 201.11946547 0 364.12772503 149.33793541 364.12772503 333.55590922 0 104.0187392-52.03008261 196.85266773-133.47207395 258.03772419 6.58661072-1.11848107 12.96609492-2.73406483 19.42842998-4.14252206l-0.6628032 0.4971027 173.116014 90.38983987c15.41018358 8.03649399 33.76155853-4.01824639 31.77314773-20.87831324l-17.72999656-149.66933641c-0.78707886-6.58661072 1.82271029-13.00752096 6.83516207-17.48144523C907.77659711 658.10676789 952.76439111 569.16681008 952.76439111 470.78190102z" fill="#D0EAFE" p-id="28822" data-spm-anchor-id="a313x.7781069.0.i33" class=""></path></svg>