<?xml version="1.0" standalone="no"?><!DOCTYPE svg PUBLIC "-//W3C//DTD SVG 1.1//EN" "http://www.w3.org/Graphics/SVG/1.1/DTD/svg11.dtd"><svg t="1571832831210" class="icon" viewBox="0 0 1024 1024" version="1.1" xmlns="http://www.w3.org/2000/svg" p-id="16232" xmlns:xlink="http://www.w3.org/1999/xlink" width="48" height="48"><defs><style type="text/css"></style></defs><path d="M455.036 625.298c0-11.271 0.158-23.707 0.317-36.831 13.6-14.87 44.822-53.184 57.151-105.361 12.595-5.822 23.178-18.362 29.794-35.88 9.261-24.659 9.949-58.686-8.096-80.752 0.106-0.424 0.158-0.688 0.211-1.112 3.388-30.905 12.384-113.033-37.095-166.85-28.523-31.01-71.229-55.459-126.845-56.94-55.618 1.481-98.323 25.929-126.845 56.94-49.48 53.817-40.483 135.945-37.15 166.85 0.054 0.424 0.106 0.688 0.16 1.112-18.046 22.066-17.358 56.093-8.097 80.753 6.667 17.516 17.092 30.058 29.686 35.879 12.33 52.23 43.34 90.49 56.94 105.36 0.158 13.177-0.212 24.237-0.212 35.51C284.955 747.908 0.467 720.656 0.467 847.977v34.45h740.855v-34.45c0-128.327-286.288-101.074-286.286-222.68z" p-id="16233" data-spm-anchor-id="a313x.7781069.0.i18" class="selected" fill="#ffffff"></path><path d="M805.424 609.358c0-8.586 0.12-18.061 0.242-28.059 10.36-11.329 34.148-40.517 43.541-80.269 9.596-4.434 17.658-13.99 22.698-27.334 7.056-18.787 7.58-44.71-6.169-61.523 0.08-0.322 0.121-0.524 0.161-0.846 2.58-23.545 9.434-86.115-28.262-127.116-21.73-23.625-54.263-42.251-96.636-43.38-42.371 1.129-74.906 19.755-96.637 43.38-37.695 41.002-30.842 103.572-28.302 127.116 0.04 0.322 0.08 0.524 0.12 0.846-13.747 16.812-13.222 42.735-6.168 61.523 5.081 13.345 13.023 22.9 22.618 27.334 9.393 39.792 33.018 68.94 43.38 80.27 0.121 10.039-0.16 18.465-0.16 27.051 0 35.408-30.478 54.618-68.577 69.914-33.588 13.485 54.04 22.786 115.891 52.531 55.078 26.488 83.529 74.457 83.529 74.457h216.84v-26.246c0-97.764-218.11-77.003-218.11-169.649z" p-id="16234" data-spm-anchor-id="a313x.7781069.0.i20" class="" fill="#CCE7FC"></path></svg>