<?xml version="1.0" standalone="no"?><!DOCTYPE svg PUBLIC "-//W3C//DTD SVG 1.1//EN" "http://www.w3.org/Graphics/SVG/1.1/DTD/svg11.dtd"><svg t="1572002044165" class="icon" viewBox="0 0 1195 1024" version="1.1" xmlns="http://www.w3.org/2000/svg" p-id="3570" xmlns:xlink="http://www.w3.org/1999/xlink" width="37.34375" height="32"><defs><style type="text/css"></style></defs><path d="M1052.957582 1024h-910.222222C63.090916 1024 0.513138 961.422222 0.513138 881.777778v-739.555556C0.513138 62.577778 63.090916 0 142.73536 0h910.222222C1132.602027 0 1195.179804 62.577778 1195.179804 142.222222v739.555556c0 79.644444-62.577778 142.222222-142.222222 142.222222zM142.73536 56.888889C97.224249 56.888889 57.402027 96.711111 57.402027 142.222222v739.555556c0 45.511111 39.822222 85.333333 85.333333 85.333333h910.222222c45.511111 0 85.333333-39.822222 85.333334-85.333333v-739.555556c0-45.511111-39.822222-85.333333-85.333334-85.333333h-910.222222z" p-id="3571" fill="#A4A4A4"></path><path d="M284.957582 398.222222c-62.577778 0-113.777778-51.2-113.777778-113.777778s51.2-113.777778 113.777778-113.777777 113.777778 51.2 113.777778 113.777777-51.2 113.777778-113.777778 113.777778z m0-170.666666c-34.133333 0-56.888889 22.755556-56.888889 56.888888s22.755556 56.888889 56.888889 56.888889 56.888889-22.755556 56.888889-56.888889-22.755556-56.888889-56.888889-56.888888zM28.957582 768c-11.377778 0-17.066667-5.688889-22.755555-17.066667-11.377778-11.377778-5.688889-28.444444 5.688889-34.133333L284.957582 557.511111c62.577778-34.133333 142.222222-34.133333 199.111111 0l73.955556 45.511111c34.133333 22.755556 85.333333 11.377778 108.088889-17.066666l102.4-125.155556c34.133333-39.822222 79.644444-68.266667 130.844444-73.955556 51.2-5.688889 102.4 11.377778 147.911111 39.822223l17.066667 17.066666 102.4 102.4c11.377778 11.377778 11.377778 28.444444 0 39.822223s-28.444444 11.377778-39.822222 0L1024.513138 483.555556s0-5.688889-5.688889-11.377778c-28.444444-22.755556-68.266667-34.133333-102.4-28.444445-39.822222 5.688889-73.955556 22.755556-96.711111 51.2l-102.4 125.155556c-45.511111 56.888889-125.155556 68.266667-182.044445 34.133333l-73.955555-45.511111c-45.511111-28.444444-96.711111-28.444444-142.222222 0L46.024249 762.311111c-5.688889 5.688889-11.377778 5.688889-17.066667 5.688889z" p-id="3572" fill="#A4A4A4"></path></svg>